<svg xmlns="http://www.w3.org/2000/svg" xmlns:xlink="http://www.w3.org/1999/xlink" width="1080" zoomAndPan="magnify" viewBox="0 0 810 809.999993" height="1080" preserveAspectRatio="xMidYMid meet" version="1.2"><defs/><g id="511f9179a6"><rect x="0" width="810" y="0" height="809.999993" style="fill:#ffffff;fill-opacity:1;stroke:none;"/><rect x="0" width="810" y="0" height="809.999993" style="fill:#ffffff;fill-opacity:1;stroke:none;"/><g style="fill:#000000;fill-opacity:1;"><g transform="translate(32.979324, 420.656833)"><path style="stroke:none" d="M 6.4375 -1.171875 C 8.46875 -1.171875 10.203125 -1.890625 11.640625 -3.328125 C 13.085938 -4.773438 13.847656 -6.515625 13.921875 -8.546875 L 13.921875 -73.46875 C 13.847656 -76.28125 12.5625 -78.390625 10.0625 -79.796875 C 8.96875 -80.421875 7.757812 -80.734375 6.4375 -80.734375 L 4.90625 -80.734375 L 4.90625 -81.90625 L 40.484375 -81.90625 L 40.359375 -80.734375 L 38.96875 -80.734375 C 36.15625 -80.734375 34.007812 -79.523438 32.53125 -77.109375 C 31.820312 -76.015625 31.46875 -74.800781 31.46875 -73.46875 L 31.46875 -8.546875 C 31.46875 -6.515625 32.207031 -4.773438 33.6875 -3.328125 C 35.175781 -1.890625 36.9375 -1.171875 38.96875 -1.171875 L 40.359375 -1.171875 L 40.484375 0 L 4.90625 0 L 4.90625 -1.171875 Z M 90.90625 0 L 81.3125 0 C 69.457031 0 61.070312 -3.238281 56.15625 -9.71875 C 42.195312 -28.664062 35.21875 -38.296875 35.21875 -38.609375 L 62.953125 -75.34375 C 63.566406 -76.125 63.875 -76.828125 63.875 -77.453125 C 63.875 -78.078125 63.757812 -78.625 63.53125 -79.09375 C 62.90625 -80.257812 61.8125 -80.84375 60.25 -80.84375 L 59.078125 -80.84375 L 59.078125 -81.90625 L 85.875 -81.90625 L 85.875 -80.84375 L 85.40625 -80.84375 C 80.1875 -80.84375 75.9375 -78.972656 72.65625 -75.234375 L 49.84375 -48.203125 L 78.96875 -8.421875 C 82.5625 -3.742188 86.539062 -1.328125 90.90625 -1.171875 Z M 90.90625 0 "/></g></g><g style="fill:#000000;fill-opacity:1;"><g transform="translate(121.550541, 420.656833)"><path style="stroke:none" d="M 86.34375 -1.171875 L 87.390625 -1.171875 L 87.390625 0 L 50.0625 0 L 50.0625 -1.171875 L 51.125 -1.171875 C 52.84375 -1.171875 54.109375 -1.695312 54.921875 -2.75 C 55.742188 -3.800781 56.15625 -4.796875 56.15625 -5.734375 C 56.15625 -6.671875 55.957031 -7.609375 55.5625 -8.546875 L 49.828125 -22.9375 L 22.453125 -22.9375 L 16.375 -8.546875 C 15.976562 -7.523438 15.78125 -6.566406 15.78125 -5.671875 C 15.78125 -4.773438 16.207031 -3.800781 17.0625 -2.75 C 17.925781 -1.695312 19.21875 -1.171875 20.9375 -1.171875 L 21.875 -1.171875 L 21.875 0 L -3.171875 0 L -3.171875 -1.171875 L -2.109375 -1.171875 C -0.316406 -1.171875 1.472656 -1.71875 3.265625 -2.8125 C 5.054688 -3.90625 6.539062 -5.539062 7.71875 -7.71875 L 34.734375 -68.90625 C 38.398438 -76.632812 40.351562 -81.742188 40.59375 -84.234375 L 41.640625 -84.234375 L 76.390625 -7.953125 C 77.566406 -5.691406 79.050781 -3.992188 80.84375 -2.859375 C 82.632812 -1.734375 84.46875 -1.171875 86.34375 -1.171875 Z M 24.453125 -27.84375 L 47.84375 -27.84375 L 36.5 -56.625 Z M 24.453125 -27.84375 "/></g></g><g style="fill:#000000;fill-opacity:1;"><g transform="translate(205.324632, 420.656833)"><path style="stroke:none" d="M 95.59375 -80.734375 C 92.863281 -80.734375 90.796875 -79.5625 89.390625 -77.21875 C 88.765625 -76.207031 88.410156 -75.035156 88.328125 -73.703125 L 88.328125 -13.34375 C 88.328125 -8.113281 88.679688 -3.703125 89.390625 -0.109375 L 89.734375 1.640625 L 88.6875 1.640625 L 29.59375 -54.640625 L 29.59375 -8.1875 C 29.59375 -6.238281 30.296875 -4.582031 31.703125 -3.21875 C 33.109375 -1.851562 34.785156 -1.171875 36.734375 -1.171875 L 38.96875 -1.171875 L 38.96875 0 L 3.515625 0 L 3.515625 -1.171875 L 5.609375 -1.171875 C 7.640625 -1.171875 9.359375 -1.851562 10.765625 -3.21875 C 12.171875 -4.582031 12.875 -6.28125 12.875 -8.3125 L 12.875 -69.03125 C 12.875 -74.175781 12.519531 -78.46875 11.8125 -81.90625 L 11.578125 -83.65625 L 12.640625 -83.65625 L 71.71875 -27.375 L 71.71875 -73.59375 C 71.644531 -75.625 70.90625 -77.320312 69.5 -78.6875 C 68.09375 -80.050781 66.414062 -80.734375 64.46875 -80.734375 L 62.359375 -80.734375 L 62.359375 -81.90625 L 97.8125 -81.90625 L 97.8125 -80.734375 Z M 95.59375 -80.734375 "/></g></g><g style="fill:#000000;fill-opacity:1;"><g transform="translate(305.83013, 420.656833)"><path style="stroke:none" d="M 86.34375 -1.171875 L 87.390625 -1.171875 L 87.390625 0 L 50.0625 0 L 50.0625 -1.171875 L 51.125 -1.171875 C 52.84375 -1.171875 54.109375 -1.695312 54.921875 -2.75 C 55.742188 -3.800781 56.15625 -4.796875 56.15625 -5.734375 C 56.15625 -6.671875 55.957031 -7.609375 55.5625 -8.546875 L 49.828125 -22.9375 L 22.453125 -22.9375 L 16.375 -8.546875 C 15.976562 -7.523438 15.78125 -6.566406 15.78125 -5.671875 C 15.78125 -4.773438 16.207031 -3.800781 17.0625 -2.75 C 17.925781 -1.695312 19.21875 -1.171875 20.9375 -1.171875 L 21.875 -1.171875 L 21.875 0 L -3.171875 0 L -3.171875 -1.171875 L -2.109375 -1.171875 C -0.316406 -1.171875 1.472656 -1.71875 3.265625 -2.8125 C 5.054688 -3.90625 6.539062 -5.539062 7.71875 -7.71875 L 34.734375 -68.90625 C 38.398438 -76.632812 40.351562 -81.742188 40.59375 -84.234375 L 41.640625 -84.234375 L 76.390625 -7.953125 C 77.566406 -5.691406 79.050781 -3.992188 80.84375 -2.859375 C 82.632812 -1.734375 84.46875 -1.171875 86.34375 -1.171875 Z M 24.453125 -27.84375 L 47.84375 -27.84375 L 36.5 -56.625 Z M 24.453125 -27.84375 "/></g></g><g style="fill:#000000;fill-opacity:1;"><g transform="translate(389.60421, 420.656833)"><path style="stroke:none" d="M 73.359375 -58.5 C 73.359375 -54.914062 72.65625 -51.523438 71.25 -48.328125 C 68.601562 -42.160156 63.691406 -37.945312 56.515625 -35.6875 C 54.410156 -34.976562 52.457031 -34.625 50.65625 -34.625 C 45.125 -34.625 40.171875 -36.070312 35.796875 -38.96875 L 35.796875 -40.125 C 41.648438 -39.96875 46.367188 -41.878906 49.953125 -45.859375 C 53.078125 -49.296875 54.640625 -53.78125 54.640625 -59.3125 C 54.640625 -64.9375 53.289062 -69.285156 50.59375 -72.359375 C 47.90625 -75.441406 44.257812 -76.984375 39.65625 -76.984375 L 31.828125 -76.984375 L 31.828125 -8.546875 C 31.828125 -6.515625 32.566406 -4.773438 34.046875 -3.328125 C 35.523438 -1.890625 37.28125 -1.171875 39.3125 -1.171875 L 40.828125 -1.171875 L 40.828125 0 L 5.265625 0 L 5.265625 -1.171875 L 6.78125 -1.171875 C 8.8125 -1.171875 10.546875 -1.890625 11.984375 -3.328125 C 13.429688 -4.773438 14.195312 -6.515625 14.28125 -8.546875 L 14.28125 -73.9375 C 14.28125 -75.894531 13.535156 -77.515625 12.046875 -78.796875 C 10.566406 -80.085938 8.8125 -80.734375 6.78125 -80.734375 L 5.265625 -80.734375 L 5.265625 -81.90625 L 44.34375 -81.90625 C 53.851562 -81.90625 61.03125 -79.875 65.875 -75.8125 C 70.863281 -71.519531 73.359375 -65.75 73.359375 -58.5 Z M 73.359375 -58.5 "/></g></g><g style="fill:#000000;fill-opacity:1;"><g transform="translate(458.401601, 420.656833)"><path style="stroke:none" d="M 86.34375 -1.171875 L 87.390625 -1.171875 L 87.390625 0 L 50.0625 0 L 50.0625 -1.171875 L 51.125 -1.171875 C 52.84375 -1.171875 54.109375 -1.695312 54.921875 -2.75 C 55.742188 -3.800781 56.15625 -4.796875 56.15625 -5.734375 C 56.15625 -6.671875 55.957031 -7.609375 55.5625 -8.546875 L 49.828125 -22.9375 L 22.453125 -22.9375 L 16.375 -8.546875 C 15.976562 -7.523438 15.78125 -6.566406 15.78125 -5.671875 C 15.78125 -4.773438 16.207031 -3.800781 17.0625 -2.75 C 17.925781 -1.695312 19.21875 -1.171875 20.9375 -1.171875 L 21.875 -1.171875 L 21.875 0 L -3.171875 0 L -3.171875 -1.171875 L -2.109375 -1.171875 C -0.316406 -1.171875 1.472656 -1.71875 3.265625 -2.8125 C 5.054688 -3.90625 6.539062 -5.539062 7.71875 -7.71875 L 34.734375 -68.90625 C 38.398438 -76.632812 40.351562 -81.742188 40.59375 -84.234375 L 41.640625 -84.234375 L 76.390625 -7.953125 C 77.566406 -5.691406 79.050781 -3.992188 80.84375 -2.859375 C 82.632812 -1.734375 84.46875 -1.171875 86.34375 -1.171875 Z M 24.453125 -27.84375 L 47.84375 -27.84375 L 36.5 -56.625 Z M 24.453125 -27.84375 "/></g></g><g style="fill:#000000;fill-opacity:1;"><g transform="translate(531.879025, 420.656833)"><path style="stroke:none" d="M 47.859375 -77.109375 L 47.859375 -8.421875 C 47.929688 -6.390625 48.6875 -4.671875 50.125 -3.265625 C 51.570312 -1.867188 53.3125 -1.171875 55.34375 -1.171875 L 56.75 -1.171875 L 56.859375 0 L 21.296875 0 L 21.296875 -1.171875 L 22.8125 -1.171875 C 24.757812 -1.171875 26.453125 -1.867188 27.890625 -3.265625 C 29.335938 -4.671875 30.140625 -6.351562 30.296875 -8.3125 L 30.296875 -77.109375 L 14.515625 -77.109375 C 10.921875 -77.023438 8.070312 -75.890625 5.96875 -73.703125 C 3.863281 -71.523438 2.8125 -68.679688 2.8125 -65.171875 L 2.8125 -63.765625 L 1.640625 -63.765625 L 1.640625 -84.125 C 4.835938 -82.800781 9.4375 -82.097656 15.4375 -82.015625 L 62.59375 -82.015625 C 65.007812 -82.015625 67.640625 -82.25 70.484375 -82.71875 C 73.335938 -83.1875 75.3125 -83.65625 76.40625 -84.125 L 76.40625 -63.765625 L 75.234375 -63.765625 L 75.234375 -65.171875 C 75.234375 -70.003906 73.398438 -73.4375 69.734375 -75.46875 C 68.015625 -76.476562 65.945312 -77.023438 63.53125 -77.109375 Z M 47.859375 -77.109375 "/></g></g><g style="fill:#000000;fill-opacity:1;"><g transform="translate(609.803002, 420.656833)"><path style="stroke:none" d="M 61.890625 -1.171875 C 63.921875 -1.171875 65.484375 -1.675781 66.578125 -2.6875 C 68.367188 -4.476562 69.300781 -6.390625 69.375 -8.421875 L 69.375 -38.265625 L 31.46875 -38.265625 L 31.46875 -8.546875 C 31.46875 -6.515625 32.207031 -4.773438 33.6875 -3.328125 C 35.175781 -1.890625 36.9375 -1.171875 38.96875 -1.171875 L 40.359375 -1.171875 L 40.484375 0 L 4.90625 0 L 4.90625 -1.171875 L 6.4375 -1.171875 C 8.46875 -1.171875 10.203125 -1.890625 11.640625 -3.328125 C 13.085938 -4.773438 13.847656 -6.515625 13.921875 -8.546875 L 13.921875 -73.359375 C 13.847656 -75.390625 13.085938 -77.125 11.640625 -78.5625 C 10.203125 -80.007812 8.46875 -80.734375 6.4375 -80.734375 L 4.90625 -80.734375 L 4.90625 -81.90625 L 40.484375 -81.90625 L 40.359375 -80.734375 L 38.96875 -80.734375 C 36.9375 -80.734375 35.175781 -80.007812 33.6875 -78.5625 C 32.207031 -77.125 31.46875 -75.390625 31.46875 -73.359375 L 31.46875 -43.296875 L 69.375 -43.296875 L 69.375 -73.359375 C 69.300781 -75.390625 68.539062 -77.125 67.09375 -78.5625 C 65.65625 -80.007812 63.921875 -80.734375 61.890625 -80.734375 L 60.375 -80.734375 L 60.375 -81.90625 L 95.9375 -81.90625 L 95.9375 -80.734375 L 94.421875 -80.734375 C 92.390625 -80.734375 90.632812 -80.007812 89.15625 -78.5625 C 87.675781 -77.125 86.9375 -75.390625 86.9375 -73.359375 L 86.9375 -8.546875 C 86.9375 -6.515625 87.675781 -4.773438 89.15625 -3.328125 C 90.632812 -1.890625 92.390625 -1.171875 94.421875 -1.171875 L 95.9375 -1.171875 L 95.9375 0 L 60.375 0 L 60.375 -1.171875 Z M 61.890625 -1.171875 "/></g></g><g style="fill:#000000;fill-opacity:1;"><g transform="translate(710.542501, 420.656833)"><path style="stroke:none" d="M 85.984375 -80.734375 L 84.34375 -80.734375 C 82.007812 -80.734375 79.785156 -80.066406 77.671875 -78.734375 C 75.566406 -77.410156 73.894531 -75.8125 72.65625 -73.9375 L 49.59375 -37.203125 L 49.59375 -8.546875 C 49.59375 -6.515625 50.332031 -4.773438 51.8125 -3.328125 C 53.300781 -1.890625 55.0625 -1.171875 57.09375 -1.171875 L 58.5 -1.171875 L 58.609375 0 L 23.046875 0 L 23.046875 -1.171875 L 24.5625 -1.171875 C 26.59375 -1.171875 28.328125 -1.867188 29.765625 -3.265625 C 31.210938 -4.671875 31.972656 -6.390625 32.046875 -8.421875 L 32.046875 -37.328125 L 9.703125 -74.0625 C 8.535156 -75.9375 6.878906 -77.515625 4.734375 -78.796875 C 2.585938 -80.085938 0.382812 -80.734375 -1.875 -80.734375 L -3.515625 -80.734375 L -3.515625 -81.90625 L 35.203125 -81.90625 L 35.203125 -80.734375 L 33.6875 -80.734375 C 31.96875 -80.734375 30.640625 -79.953125 29.703125 -78.390625 C 29.242188 -77.535156 29.015625 -76.695312 29.015625 -75.875 C 29.015625 -75.050781 29.207031 -74.25 29.59375 -73.46875 L 46.328125 -43.0625 L 63.75 -73.46875 C 64.144531 -74.25 64.34375 -75.050781 64.34375 -75.875 C 64.34375 -76.695312 64.066406 -77.492188 63.515625 -78.265625 C 62.585938 -79.910156 61.265625 -80.734375 59.546875 -80.734375 L 58.140625 -80.734375 L 58.140625 -81.90625 L 85.984375 -81.90625 Z M 85.984375 -80.734375 "/></g></g><g style="fill:#000000;fill-opacity:1;"><g transform="translate(792.678841, 420.656833)"><path style="stroke:none" d=""/></g></g><g style="fill:#000000;fill-opacity:1;"><g transform="translate(317.151784, 489.395337)"><path style="stroke:none" d="M 1.46875 0 L 1.46875 -3.140625 L 3.5625 -3.140625 C 4.132812 -3.140625 4.632812 -3.257812 5.0625 -3.5 C 5.5 -3.75 5.835938 -4.148438 6.078125 -4.703125 C 6.328125 -5.253906 6.453125 -5.957031 6.453125 -6.8125 L 6.453125 -36.984375 C 6.453125 -37.960938 6.304688 -38.726562 6.015625 -39.28125 C 5.734375 -39.84375 5.34375 -40.222656 4.84375 -40.421875 C 4.351562 -40.628906 3.800781 -40.734375 3.1875 -40.734375 L 1.46875 -40.734375 L 1.46875 -43.859375 L 19.46875 -43.859375 L 19.46875 -40.734375 L 17.9375 -40.734375 C 17.40625 -40.734375 16.921875 -40.628906 16.484375 -40.421875 C 16.054688 -40.222656 15.738281 -39.851562 15.53125 -39.3125 C 15.332031 -38.78125 15.234375 -38.046875 15.234375 -37.109375 L 15.234375 -24.703125 L 28.8125 -24.703125 L 28.8125 -36.984375 C 28.8125 -37.960938 28.695312 -38.726562 28.46875 -39.28125 C 28.25 -39.84375 27.910156 -40.222656 27.453125 -40.421875 C 27.003906 -40.628906 26.453125 -40.734375 25.796875 -40.734375 L 24.515625 -40.734375 L 24.515625 -43.859375 L 42.515625 -43.859375 L 42.515625 -40.734375 L 40.421875 -40.734375 C 39.847656 -40.734375 39.347656 -40.628906 38.921875 -40.421875 C 38.492188 -40.222656 38.15625 -39.84375 37.90625 -39.28125 C 37.65625 -38.726562 37.53125 -37.960938 37.53125 -36.984375 L 37.53125 -6.8125 C 37.53125 -5.914062 37.65625 -5.191406 37.90625 -4.640625 C 38.15625 -4.085938 38.503906 -3.695312 38.953125 -3.46875 C 39.398438 -3.25 39.890625 -3.140625 40.421875 -3.140625 L 42.515625 -3.140625 L 42.515625 0 L 24.515625 0 L 24.515625 -3.140625 L 25.859375 -3.140625 C 26.472656 -3.140625 27.003906 -3.257812 27.453125 -3.5 C 27.910156 -3.75 28.25 -4.160156 28.46875 -4.734375 C 28.695312 -5.304688 28.8125 -6.082031 28.8125 -7.0625 L 28.8125 -21.140625 L 15.234375 -21.140625 L 15.234375 -6.8125 C 15.234375 -5.957031 15.332031 -5.253906 15.53125 -4.703125 C 15.738281 -4.148438 16.054688 -3.75 16.484375 -3.5 C 16.921875 -3.257812 17.40625 -3.140625 17.9375 -3.140625 L 19.46875 -3.140625 L 19.46875 0 Z M 1.46875 0 "/></g></g><g style="fill:#000000;fill-opacity:1;"><g transform="translate(361.080773, 489.395337)"><path style="stroke:none" d="M 0.25 0 L 0.25 -3.140625 L 0.859375 -3.140625 C 1.515625 -3.140625 2.085938 -3.25 2.578125 -3.46875 C 3.066406 -3.695312 3.523438 -4.140625 3.953125 -4.796875 C 4.390625 -5.453125 4.789062 -6.394531 5.15625 -7.625 L 16.71875 -43.859375 L 24.390625 -43.859375 L 35.75 -6.640625 C 36.039062 -5.773438 36.378906 -5.078125 36.765625 -4.546875 C 37.160156 -4.015625 37.625 -3.644531 38.15625 -3.4375 C 38.6875 -3.238281 39.28125 -3.140625 39.9375 -3.140625 L 40.546875 -3.140625 L 40.546875 0 L 22.609375 0 L 22.609375 -3.140625 L 24.390625 -3.140625 C 25.171875 -3.140625 25.796875 -3.3125 26.265625 -3.65625 C 26.734375 -4 26.96875 -4.5625 26.96875 -5.34375 C 26.96875 -5.675781 26.9375 -6.023438 26.875 -6.390625 C 26.8125 -6.753906 26.738281 -7.117188 26.65625 -7.484375 C 26.582031 -7.859375 26.484375 -8.191406 26.359375 -8.484375 L 24.640625 -14.5 L 11.734375 -14.5 L 10.265625 -9.28125 C 10.179688 -8.945312 10.085938 -8.554688 9.984375 -8.109375 C 9.878906 -7.660156 9.785156 -7.207031 9.703125 -6.75 C 9.617188 -6.300781 9.578125 -5.894531 9.578125 -5.53125 C 9.578125 -4.789062 9.769531 -4.207031 10.15625 -3.78125 C 10.550781 -3.351562 11.222656 -3.140625 12.171875 -3.140625 L 14.25 -3.140625 L 14.25 0 Z M 12.90625 -18.125 L 23.53125 -18.125 L 20.390625 -29.734375 C 20.148438 -30.710938 19.894531 -31.660156 19.625 -32.578125 C 19.363281 -33.503906 19.128906 -34.414062 18.921875 -35.3125 C 18.710938 -36.21875 18.53125 -37.082031 18.375 -37.90625 C 18.207031 -37.082031 18.007812 -36.226562 17.78125 -35.34375 C 17.5625 -34.46875 17.335938 -33.585938 17.109375 -32.703125 C 16.878906 -31.828125 16.625 -30.941406 16.34375 -30.046875 Z M 12.90625 -18.125 "/></g></g><g style="fill:#000000;fill-opacity:1;"><g transform="translate(401.630611, 489.395337)"><path style="stroke:none" d="M 1.46875 0 L 1.46875 -3.140625 L 3.5625 -3.140625 C 4.050781 -3.140625 4.519531 -3.238281 4.96875 -3.4375 C 5.425781 -3.644531 5.785156 -4.015625 6.046875 -4.546875 C 6.316406 -5.078125 6.453125 -5.816406 6.453125 -6.765625 L 6.453125 -36.984375 C 6.453125 -37.960938 6.304688 -38.726562 6.015625 -39.28125 C 5.734375 -39.84375 5.351562 -40.222656 4.875 -40.421875 C 4.40625 -40.628906 3.863281 -40.734375 3.25 -40.734375 L 1.46875 -40.734375 L 1.46875 -43.859375 L 20.21875 -43.859375 L 20.21875 -40.734375 L 18.25 -40.734375 C 17.550781 -40.734375 16.972656 -40.628906 16.515625 -40.421875 C 16.066406 -40.222656 15.738281 -39.863281 15.53125 -39.34375 C 15.332031 -38.832031 15.234375 -38.109375 15.234375 -37.171875 L 15.234375 -3.625 L 25.125 -3.625 C 25.945312 -3.625 26.644531 -3.816406 27.21875 -4.203125 C 27.789062 -4.597656 28.269531 -5.191406 28.65625 -5.984375 C 29.050781 -6.785156 29.347656 -7.78125 29.546875 -8.96875 L 30.46875 -13.578125 L 33.484375 -13.578125 L 33.109375 0 Z M 1.46875 0 "/></g></g><g style="fill:#000000;fill-opacity:1;"><g transform="translate(436.773804, 489.395337)"><path style="stroke:none" d="M 1.46875 0 L 1.46875 -3.140625 L 3.5625 -3.140625 C 4.050781 -3.140625 4.519531 -3.238281 4.96875 -3.4375 C 5.425781 -3.644531 5.785156 -4.015625 6.046875 -4.546875 C 6.316406 -5.078125 6.453125 -5.816406 6.453125 -6.765625 L 6.453125 -36.984375 C 6.453125 -37.960938 6.304688 -38.726562 6.015625 -39.28125 C 5.734375 -39.84375 5.351562 -40.222656 4.875 -40.421875 C 4.40625 -40.628906 3.863281 -40.734375 3.25 -40.734375 L 1.46875 -40.734375 L 1.46875 -43.859375 L 20.21875 -43.859375 L 20.21875 -40.734375 L 18.25 -40.734375 C 17.550781 -40.734375 16.972656 -40.628906 16.515625 -40.421875 C 16.066406 -40.222656 15.738281 -39.863281 15.53125 -39.34375 C 15.332031 -38.832031 15.234375 -38.109375 15.234375 -37.171875 L 15.234375 -3.625 L 25.125 -3.625 C 25.945312 -3.625 26.644531 -3.816406 27.21875 -4.203125 C 27.789062 -4.597656 28.269531 -5.191406 28.65625 -5.984375 C 29.050781 -6.785156 29.347656 -7.78125 29.546875 -8.96875 L 30.46875 -13.578125 L 33.484375 -13.578125 L 33.109375 0 Z M 1.46875 0 "/></g></g></g></svg>